<svg version="1.2" xmlns="http://www.w3.org/2000/svg" viewBox="0 0 93 146" width="93" height="146"><style>.a{fill:#fff}</style><path fill-rule="evenodd" class="a" d="m59.7 13.1v82.3c0 7.2-5.9 13.1-13.2 13.1-7.3 0-13.2-5.9-13.2-13.1v-68.5h-18.9q-0.9 0-1.7-0.1c-6.7-0.8-11.9-6.5-11.9-13.4 0-3.7 1.6-7.1 4-9.5 2.1-2.1 4.8-3.5 7.9-3.9q0.8-0.1 1.7-0.1h32.1c7.3 0 13.2 5.9 13.2 13.2zm32.8 0.7c0 7.5-6.2 13.7-13.8 13.7-7.6 0-13.8-6.2-13.8-13.7 0-7.6 6.2-13.8 13.8-13.8 7.6 0 13.8 6.2 13.8 13.8zm-79.3 116.4q-0.9-0.3-1.4-1-0.5-0.6-0.5-1.6h2.5q0 0.6 0.3 0.8 0.4 0.3 0.9 0.3 0.5 0 0.8-0.2 0.3-0.3 0.3-0.7 0-0.3-0.3-0.6-0.2-0.2-0.5-0.3-0.4-0.2-1-0.4-1-0.3-1.5-0.6-0.6-0.2-1-0.8-0.5-0.6-0.5-1.4 0-1.4 1-2.1 1-0.8 2.5-0.8 1.6 0 2.5 0.8 1 0.7 1.1 2.1h-2.5q-0.1-0.5-0.4-0.8-0.3-0.2-0.8-0.2-0.4 0-0.7 0.2-0.2 0.2-0.2 0.6 0 0.5 0.4 0.8 0.5 0.2 1.4 0.5 0.9 0.3 1.5 0.6 0.6 0.3 1 0.8 0.4 0.6 0.4 1.4 0 0.8-0.4 1.5-0.4 0.7-1.2 1.1-0.8 0.4-1.9 0.4-1 0-1.8-0.4zm8-7q0.6-1.1 1.7-1.7 1.1-0.7 2.5-0.7 1.7 0 2.9 0.9 1.2 0.9 1.6 2.5h-2.5q-0.3-0.6-0.8-0.9-0.6-0.3-1.2-0.3-1.1 0-1.8 0.7-0.6 0.8-0.6 2 0 1.2 0.6 2 0.7 0.7 1.8 0.7 0.6 0 1.2-0.3 0.5-0.3 0.8-0.9h2.5q-0.4 1.6-1.6 2.4-1.2 0.9-2.9 0.9-1.4 0-2.5-0.6-1.1-0.6-1.7-1.7-0.6-1.1-0.6-2.5 0-1.4 0.6-2.5zm13.3 6.7q-1.1-0.6-1.8-1.7-0.7-1.1-0.7-2.5 0-1.4 0.7-2.5 0.7-1.1 1.8-1.8 1.1-0.6 2.4-0.6 1.4 0 2.5 0.6 1.1 0.7 1.8 1.8 0.6 1.1 0.6 2.5 0 1.4-0.6 2.5-0.7 1.1-1.8 1.7-1.1 0.7-2.5 0.7-1.3 0-2.4-0.7zm4.3-2.2q0.7-0.8 0.7-2 0-1.3-0.7-2-0.7-0.8-1.9-0.8-1.1 0-1.8 0.8-0.7 0.7-0.7 2 0 1.2 0.7 2 0.7 0.7 1.8 0.7 1.2 0 1.9-0.7zm7.4 2.2q-1.1-0.6-1.7-1.7-0.7-1.1-0.7-2.5 0-1.4 0.7-2.5 0.6-1.1 1.7-1.8 1.2-0.6 2.5-0.6 1.3 0 2.5 0.6 1.1 0.7 1.7 1.8 0.7 1.1 0.7 2.5 0 1.4-0.7 2.5-0.6 1.1-1.7 1.7-1.2 0.7-2.5 0.7-1.3 0-2.5-0.7zm4.3-2.2q0.7-0.8 0.7-2 0-1.3-0.7-2-0.7-0.8-1.8-0.8-1.2 0-1.8 0.8-0.7 0.7-0.7 2 0 1.2 0.7 2 0.6 0.7 1.8 0.7 1.1 0 1.8-0.7zm12.3-6.7v1.8h-2.5v7.7h-2.3v-7.7h-2.6v-1.8zm4.6 1.8v1.9h3.1v1.8h-3.1v2.1h3.5v1.9h-5.8v-9.5h5.8v1.8zm11 7.7l-2-3.6h-0.6v3.6h-2.3v-9.5h3.9q1.1 0 1.9 0.4 0.8 0.3 1.2 1 0.4 0.7 0.4 1.6 0 0.9-0.5 1.6-0.6 0.8-1.6 1.1l2.2 3.8zm-2.5-5.3h1.4q0.6 0 1-0.3 0.3-0.3 0.3-0.9 0-0.5-0.3-0.8-0.4-0.3-1-0.3h-1.4zm-67.1 13v2h3.1v1.7h-3.1v2.1h3.5v1.9h-5.9v-9.5h5.9v1.8zm9.8 5.9h3v1.8h-5.4v-9.5h2.4zm8.9-5.9v1.9h3.1v1.8h-3.1v2.1h3.5v1.9h-5.9v-9.5h5.9v1.8zm7.7 0.4q0.6-1.1 1.7-1.7 1.1-0.6 2.4-0.6 1.7 0 2.9 0.8 1.3 0.9 1.7 2.5h-2.6q-0.3-0.6-0.8-0.9-0.5-0.3-1.2-0.3-1.1 0-1.7 0.7-0.7 0.8-0.7 2 0 1.2 0.7 2 0.6 0.7 1.7 0.7 0.7 0 1.2-0.3 0.5-0.3 0.8-0.9h2.6q-0.4 1.6-1.7 2.4-1.2 0.9-2.9 0.9-1.3 0-2.4-0.6-1.1-0.6-1.7-1.7-0.6-1.1-0.6-2.5 0-1.4 0.6-2.5zm19.4-2.2v1.8h-2.5v7.7h-2.4v-7.7h-2.5v-1.8zm8.5 9.5l-2-3.6h-0.6v3.6h-2.3v-9.5h3.9q1.1 0 1.9 0.4 0.8 0.3 1.2 1 0.4 0.7 0.4 1.6 0 0.9-0.5 1.6-0.6 0.8-1.6 1.1l2.2 3.8zm-2.5-5.3h1.4q0.6 0 1-0.3 0.3-0.3 0.3-0.9 0-0.5-0.3-0.8-0.4-0.3-1-0.3h-1.4zm11.3-4.3v9.5h-2.4v-9.5zm4.4 2.2q0.6-1.1 1.7-1.7 1.1-0.6 2.5-0.6 1.7 0 2.9 0.9 1.2 0.9 1.6 2.4h-2.6q-0.3-0.6-0.8-0.9-0.5-0.3-1.2-0.3-1 0-1.7 0.8-0.7 0.7-0.7 1.9 0 1.3 0.7 2 0.7 0.8 1.7 0.8 0.7 0 1.2-0.3 0.5-0.3 0.8-0.9h2.6q-0.4 1.5-1.6 2.4-1.2 0.9-2.9 0.9-1.4 0-2.5-0.6-1.1-0.7-1.7-1.8-0.6-1-0.6-2.5 0-1.4 0.6-2.5z"/></svg>